<mxfile host="app.diagrams.net" agent="Mozilla/5.0 (Macintosh; Intel Mac OS X 10_15_7) AppleWebKit/537.36 (KHTML, like Gecko) Chrome/134.0.0.0 Safari/537.36" version="26.1.3">
  <diagram name="Page-1" id="IzYic8yUrL5ko1WnZ3Cl">
    <mxGraphModel dx="579" dy="750" grid="1" gridSize="10" guides="1" tooltips="1" connect="1" arrows="1" fold="1" page="1" pageScale="1" pageWidth="850" pageHeight="1100" math="0" shadow="0">
      <root>
        <mxCell id="0" />
        <mxCell id="1" parent="0" />
        <mxCell id="ra3Cn8RLsT88_JQhl1yy-1" value="Set up&amp;nbsp;" style="rounded=0;whiteSpace=wrap;html=1;" vertex="1" parent="1">
          <mxGeometry x="320" y="100" width="120" height="60" as="geometry" />
        </mxCell>
        <mxCell id="ra3Cn8RLsT88_JQhl1yy-11" value="" style="edgeStyle=orthogonalEdgeStyle;rounded=0;orthogonalLoop=1;jettySize=auto;html=1;" edge="1" parent="1" source="ra3Cn8RLsT88_JQhl1yy-2" target="ra3Cn8RLsT88_JQhl1yy-4">
          <mxGeometry relative="1" as="geometry">
            <Array as="points">
              <mxPoint x="380" y="310" />
              <mxPoint x="380" y="310" />
            </Array>
          </mxGeometry>
        </mxCell>
        <mxCell id="ra3Cn8RLsT88_JQhl1yy-2" value="Read in temperature" style="rounded=0;whiteSpace=wrap;html=1;" vertex="1" parent="1">
          <mxGeometry x="320" y="220" width="120" height="60" as="geometry" />
        </mxCell>
        <mxCell id="ra3Cn8RLsT88_JQhl1yy-4" value="Is pump on&amp;nbsp;" style="rounded=0;whiteSpace=wrap;html=1;" vertex="1" parent="1">
          <mxGeometry x="320" y="340" width="120" height="60" as="geometry" />
        </mxCell>
        <mxCell id="ra3Cn8RLsT88_JQhl1yy-18" style="edgeStyle=orthogonalEdgeStyle;rounded=0;orthogonalLoop=1;jettySize=auto;html=1;exitX=0.5;exitY=1;exitDx=0;exitDy=0;entryX=0.5;entryY=0;entryDx=0;entryDy=0;" edge="1" parent="1" source="ra3Cn8RLsT88_JQhl1yy-5" target="ra3Cn8RLsT88_JQhl1yy-7">
          <mxGeometry relative="1" as="geometry" />
        </mxCell>
        <mxCell id="ra3Cn8RLsT88_JQhl1yy-22" value="Yes" style="edgeLabel;html=1;align=center;verticalAlign=middle;resizable=0;points=[];" vertex="1" connectable="0" parent="ra3Cn8RLsT88_JQhl1yy-18">
          <mxGeometry x="-0.3556" y="1" relative="1" as="geometry">
            <mxPoint x="-1" y="11" as="offset" />
          </mxGeometry>
        </mxCell>
        <mxCell id="ra3Cn8RLsT88_JQhl1yy-24" style="edgeStyle=orthogonalEdgeStyle;rounded=0;orthogonalLoop=1;jettySize=auto;html=1;exitX=1;exitY=0.5;exitDx=0;exitDy=0;entryX=0.25;entryY=0;entryDx=0;entryDy=0;" edge="1" parent="1" source="ra3Cn8RLsT88_JQhl1yy-5" target="ra3Cn8RLsT88_JQhl1yy-9">
          <mxGeometry relative="1" as="geometry" />
        </mxCell>
        <mxCell id="ra3Cn8RLsT88_JQhl1yy-27" value="No" style="edgeLabel;html=1;align=center;verticalAlign=middle;resizable=0;points=[];" vertex="1" connectable="0" parent="ra3Cn8RLsT88_JQhl1yy-24">
          <mxGeometry x="0.0817" y="-3" relative="1" as="geometry">
            <mxPoint as="offset" />
          </mxGeometry>
        </mxCell>
        <mxCell id="ra3Cn8RLsT88_JQhl1yy-5" value="Is the temperature below the threshold" style="rounded=0;whiteSpace=wrap;html=1;" vertex="1" parent="1">
          <mxGeometry x="200" y="460" width="120" height="60" as="geometry" />
        </mxCell>
        <mxCell id="ra3Cn8RLsT88_JQhl1yy-19" style="edgeStyle=orthogonalEdgeStyle;rounded=0;orthogonalLoop=1;jettySize=auto;html=1;exitX=0.5;exitY=1;exitDx=0;exitDy=0;entryX=0.5;entryY=0;entryDx=0;entryDy=0;" edge="1" parent="1" source="ra3Cn8RLsT88_JQhl1yy-6" target="ra3Cn8RLsT88_JQhl1yy-8">
          <mxGeometry relative="1" as="geometry" />
        </mxCell>
        <mxCell id="ra3Cn8RLsT88_JQhl1yy-23" value="Yes" style="edgeLabel;html=1;align=center;verticalAlign=middle;resizable=0;points=[];" vertex="1" connectable="0" parent="ra3Cn8RLsT88_JQhl1yy-19">
          <mxGeometry x="0.0889" y="1" relative="1" as="geometry">
            <mxPoint x="-1" y="-3" as="offset" />
          </mxGeometry>
        </mxCell>
        <mxCell id="ra3Cn8RLsT88_JQhl1yy-29" style="edgeStyle=orthogonalEdgeStyle;rounded=0;orthogonalLoop=1;jettySize=auto;html=1;exitX=0;exitY=0.5;exitDx=0;exitDy=0;entryX=0.75;entryY=0;entryDx=0;entryDy=0;" edge="1" parent="1" source="ra3Cn8RLsT88_JQhl1yy-6" target="ra3Cn8RLsT88_JQhl1yy-9">
          <mxGeometry relative="1" as="geometry" />
        </mxCell>
        <mxCell id="ra3Cn8RLsT88_JQhl1yy-30" value="No" style="edgeLabel;html=1;align=center;verticalAlign=middle;resizable=0;points=[];" vertex="1" connectable="0" parent="ra3Cn8RLsT88_JQhl1yy-29">
          <mxGeometry x="0.0872" relative="1" as="geometry">
            <mxPoint as="offset" />
          </mxGeometry>
        </mxCell>
        <mxCell id="ra3Cn8RLsT88_JQhl1yy-6" value="Is the temperature above the threshold" style="rounded=0;whiteSpace=wrap;html=1;" vertex="1" parent="1">
          <mxGeometry x="440" y="460" width="120" height="60" as="geometry" />
        </mxCell>
        <mxCell id="ra3Cn8RLsT88_JQhl1yy-21" style="edgeStyle=orthogonalEdgeStyle;rounded=0;orthogonalLoop=1;jettySize=auto;html=1;exitX=0.5;exitY=1;exitDx=0;exitDy=0;entryX=0;entryY=0;entryDx=0;entryDy=0;" edge="1" parent="1" source="ra3Cn8RLsT88_JQhl1yy-7" target="ra3Cn8RLsT88_JQhl1yy-9">
          <mxGeometry relative="1" as="geometry" />
        </mxCell>
        <mxCell id="ra3Cn8RLsT88_JQhl1yy-7" value="Turn pump on" style="rounded=0;whiteSpace=wrap;html=1;" vertex="1" parent="1">
          <mxGeometry x="200" y="580" width="120" height="60" as="geometry" />
        </mxCell>
        <mxCell id="ra3Cn8RLsT88_JQhl1yy-20" style="edgeStyle=orthogonalEdgeStyle;rounded=0;orthogonalLoop=1;jettySize=auto;html=1;exitX=0.5;exitY=1;exitDx=0;exitDy=0;entryX=1;entryY=0;entryDx=0;entryDy=0;" edge="1" parent="1" source="ra3Cn8RLsT88_JQhl1yy-8" target="ra3Cn8RLsT88_JQhl1yy-9">
          <mxGeometry relative="1" as="geometry" />
        </mxCell>
        <mxCell id="ra3Cn8RLsT88_JQhl1yy-8" value="Turn pump off" style="rounded=0;whiteSpace=wrap;html=1;" vertex="1" parent="1">
          <mxGeometry x="440" y="580" width="120" height="60" as="geometry" />
        </mxCell>
        <mxCell id="ra3Cn8RLsT88_JQhl1yy-31" style="edgeStyle=orthogonalEdgeStyle;rounded=0;orthogonalLoop=1;jettySize=auto;html=1;exitX=0.5;exitY=1;exitDx=0;exitDy=0;entryX=1;entryY=0.5;entryDx=0;entryDy=0;" edge="1" parent="1" source="ra3Cn8RLsT88_JQhl1yy-9" target="ra3Cn8RLsT88_JQhl1yy-2">
          <mxGeometry relative="1" as="geometry">
            <Array as="points">
              <mxPoint x="380" y="780" />
              <mxPoint x="580" y="780" />
              <mxPoint x="580" y="250" />
            </Array>
          </mxGeometry>
        </mxCell>
        <mxCell id="ra3Cn8RLsT88_JQhl1yy-9" value="Print current Temp and state of the Pump" style="rounded=0;whiteSpace=wrap;html=1;" vertex="1" parent="1">
          <mxGeometry x="320" y="700" width="120" height="60" as="geometry" />
        </mxCell>
        <mxCell id="ra3Cn8RLsT88_JQhl1yy-10" value="" style="endArrow=classic;html=1;rounded=0;exitX=0.5;exitY=1;exitDx=0;exitDy=0;entryX=0.5;entryY=0;entryDx=0;entryDy=0;" edge="1" parent="1" source="ra3Cn8RLsT88_JQhl1yy-1" target="ra3Cn8RLsT88_JQhl1yy-2">
          <mxGeometry width="50" height="50" relative="1" as="geometry">
            <mxPoint x="360" y="500" as="sourcePoint" />
            <mxPoint x="410" y="450" as="targetPoint" />
          </mxGeometry>
        </mxCell>
        <mxCell id="ra3Cn8RLsT88_JQhl1yy-12" value="" style="endArrow=classic;html=1;rounded=0;exitX=1;exitY=1;exitDx=0;exitDy=0;entryX=0.5;entryY=0;entryDx=0;entryDy=0;" edge="1" parent="1" source="ra3Cn8RLsT88_JQhl1yy-4" target="ra3Cn8RLsT88_JQhl1yy-6">
          <mxGeometry width="50" height="50" relative="1" as="geometry">
            <mxPoint x="440" y="400" as="sourcePoint" />
            <mxPoint x="440" y="460" as="targetPoint" />
          </mxGeometry>
        </mxCell>
        <mxCell id="ra3Cn8RLsT88_JQhl1yy-15" value="Yes" style="edgeLabel;html=1;align=center;verticalAlign=middle;resizable=0;points=[];" vertex="1" connectable="0" parent="ra3Cn8RLsT88_JQhl1yy-12">
          <mxGeometry x="0.0237" y="-1" relative="1" as="geometry">
            <mxPoint as="offset" />
          </mxGeometry>
        </mxCell>
        <mxCell id="ra3Cn8RLsT88_JQhl1yy-13" value="" style="endArrow=classic;html=1;rounded=0;exitX=0;exitY=1;exitDx=0;exitDy=0;entryX=0.5;entryY=0;entryDx=0;entryDy=0;" edge="1" parent="1" source="ra3Cn8RLsT88_JQhl1yy-4" target="ra3Cn8RLsT88_JQhl1yy-5">
          <mxGeometry width="50" height="50" relative="1" as="geometry">
            <mxPoint x="320" y="400" as="sourcePoint" />
            <mxPoint x="320" y="460" as="targetPoint" />
          </mxGeometry>
        </mxCell>
        <mxCell id="ra3Cn8RLsT88_JQhl1yy-14" value="No" style="edgeLabel;html=1;align=center;verticalAlign=middle;resizable=0;points=[];" vertex="1" connectable="0" parent="ra3Cn8RLsT88_JQhl1yy-13">
          <mxGeometry x="0.0333" y="4" relative="1" as="geometry">
            <mxPoint y="-4" as="offset" />
          </mxGeometry>
        </mxCell>
      </root>
    </mxGraphModel>
  </diagram>
</mxfile>
